<svg xmlns="http://www.w3.org/2000/svg" xmlns:xlink="http://www.w3.org/1999/xlink" width="151" height="50.029" viewBox="0 0 151 50.029"><defs><style>.a{fill:#262626;}.b{fill:#7c7c7c;}.c,.d{fill:#fff;}.c{stroke:#fff;stroke-miterlimit:10;stroke-width:0.2px;}.e{fill:url(#a);}.f{fill:url(#b);}.g{fill:url(#c);}.h{fill:url(#d);}</style><linearGradient id="a" x1="0.908" y1="1.032" x2="-0.383" y2="0.36" gradientUnits="objectBoundingBox"><stop offset="0" stop-color="#00a0ff"/><stop offset="0.007" stop-color="#00a1ff"/><stop offset="0.26" stop-color="#00beff"/><stop offset="0.512" stop-color="#00d2ff"/><stop offset="0.76" stop-color="#00dfff"/><stop offset="1" stop-color="#00e3ff"/></linearGradient><linearGradient id="b" x1="1.077" y1="0.729" x2="-1.307" y2="0.729" gradientUnits="objectBoundingBox"><stop offset="0" stop-color="#ffe000"/><stop offset="0.409" stop-color="#ffbd00"/><stop offset="0.775" stop-color="orange"/><stop offset="1" stop-color="#ff9c00"/></linearGradient><linearGradient id="c" x1="0.864" y1="-0.023" x2="-0.499" y2="-1.789" gradientUnits="objectBoundingBox"><stop offset="0" stop-color="#ff3a44"/><stop offset="1" stop-color="#c31162"/></linearGradient><linearGradient id="d" x1="-0.186" y1="2.701" x2="0.423" y2="1.909" gradientUnits="objectBoundingBox"><stop offset="0" stop-color="#32a071"/><stop offset="0.069" stop-color="#2da771"/><stop offset="0.476" stop-color="#15cf74"/><stop offset="0.801" stop-color="#06e775"/><stop offset="1" stop-color="#00f076"/></linearGradient></defs><path class="a" d="M144.961,50.029H5.575C2.453,50.029,0,47.278,0,43.776V6.254C0,2.752,2.453,0,5.575,0H144.961c3.122,0,5.575,2.752,5.575,6.254V43.776C150.536,47.278,148.083,50.029,144.961,50.029Z"/><path class="b" d="M145.407,1a5.029,5.029,0,0,1,4.7,5.253V43.776a5.029,5.029,0,0,1-4.7,5.253H5.593a5.029,5.029,0,0,1-4.7-5.253V6.254A5.029,5.029,0,0,1,5.593,1Zm0-1H5.593C2.461,0,0,2.877,0,6.254V43.776c0,3.5,2.461,6.254,5.593,6.254H145.407c3.132,0,5.593-2.752,5.593-6.254V6.254C151,2.877,148.539,0,145.407,0Z"/><path class="c" d="M47.838,10.441a2.923,2.923,0,0,1-.751,2.146A3.327,3.327,0,0,1,41.4,10.226,3.3,3.3,0,0,1,44.726,6.9a2.857,2.857,0,0,1,1.288.322,2.337,2.337,0,0,1,.966.751l-.537.537a2,2,0,0,0-1.717-.751,2.135,2.135,0,0,0-1.717.751,2.211,2.211,0,0,0-.751,1.824,2.211,2.211,0,0,0,.751,1.824,2.763,2.763,0,0,0,1.717.751,2.353,2.353,0,0,0,1.824-.751,1.777,1.777,0,0,0,.537-1.288H44.726v-.858h3.112Zm4.936-2.683h-2.9V9.8H52.56v.751H49.877v2.039h2.9v.858H49.019V7.007h3.756Zm3.541,5.687h-.858V7.758H53.633V7.007H58.14v.751H56.316Zm4.936,0V7.007h.858v6.438Zm4.507,0H64.9V7.758H63.076V7.007h4.4v.751H65.651v5.687Zm10.194-.858a3.327,3.327,0,0,1-5.687-2.361,3.327,3.327,0,1,1,6.653,0A3.155,3.155,0,0,1,75.952,12.587Zm-4.078-.537a2.532,2.532,0,0,0,1.717.751,2.135,2.135,0,0,0,1.717-.751,2.589,2.589,0,0,0,.751-1.824A2.211,2.211,0,0,0,75.309,8.4a2.532,2.532,0,0,0-1.717-.751,2.135,2.135,0,0,0-1.717.751,2.589,2.589,0,0,0-.751,1.824A2.21,2.21,0,0,0,71.875,12.051ZM78.1,13.446V7.007h.966l3.112,5.043V7.007h.858v6.438h-.858L78.85,8.188v5.258Z" transform="translate(6.025 3.574)"/><path class="d" d="M70.073,22.143a4.514,4.514,0,0,0-4.614,4.614,4.58,4.58,0,0,0,4.614,4.614,4.514,4.514,0,0,0,4.614-4.614A4.452,4.452,0,0,0,70.073,22.143Zm0,7.3a2.8,2.8,0,0,1,0-5.58,2.6,2.6,0,0,1,2.575,2.79A2.664,2.664,0,0,1,70.073,29.44Zm-9.979-7.3a4.514,4.514,0,0,0-4.614,4.614,4.58,4.58,0,0,0,4.614,4.614,4.514,4.514,0,0,0,4.614-4.614A4.452,4.452,0,0,0,60.093,22.143Zm0,7.3a2.8,2.8,0,0,1,0-5.58,2.6,2.6,0,0,1,2.575,2.79A2.664,2.664,0,0,1,60.093,29.44Zm-11.911-5.9V25.47H52.8a4.058,4.058,0,0,1-1.073,2.468,4.75,4.75,0,0,1-3.541,1.395,5,5,0,0,1-5.043-5.151,5.062,5.062,0,0,1,5.043-5.151,5.321,5.321,0,0,1,3.541,1.395l1.395-1.395A6.876,6.876,0,0,0,48.289,17.1,7.239,7.239,0,0,0,41.1,24.182a7.239,7.239,0,0,0,7.189,7.082,6.175,6.175,0,0,0,4.936-2.039,6.46,6.46,0,0,0,1.717-4.507,4.024,4.024,0,0,0-.107-1.18Zm48.717,1.5a4.169,4.169,0,0,0-3.863-2.9,4.322,4.322,0,0,0-4.292,4.614,4.491,4.491,0,0,0,4.507,4.614,4.4,4.4,0,0,0,3.756-2.039L95.5,28.26a2.616,2.616,0,0,1-2.253,1.288A2.328,2.328,0,0,1,91,28.152l6.116-2.575Zm-6.224,1.5a2.607,2.607,0,0,1,2.361-2.683,1.9,1.9,0,0,1,1.717.966Zm-5.043,4.4h2.039V17.529H85.632Zm-3.219-7.833a3.533,3.533,0,0,0-2.468-1.073,4.611,4.611,0,0,0-4.4,4.614,4.443,4.443,0,0,0,4.4,4.507,3.081,3.081,0,0,0,2.361-1.073h.107v.644A2.44,2.44,0,0,1,77.691,31.8l-1.717.751a4.427,4.427,0,0,0,4.078,2.683c2.361,0,4.292-1.395,4.292-4.721V22.358H82.413ZM80.052,29.44a2.8,2.8,0,0,1,0-5.58,2.582,2.582,0,0,1,2.468,2.79A2.582,2.582,0,0,1,80.052,29.44Zm26.183-11.911h-4.829V30.942h2.039V25.9h2.79a4.19,4.19,0,1,0,0-8.37Zm.107,6.438h-2.9V19.353h2.9a2.357,2.357,0,0,1,2.361,2.253,2.456,2.456,0,0,1-2.361,2.361Zm12.34-1.932a3.607,3.607,0,0,0-3.541,2.039l1.824.751a1.9,1.9,0,0,1,1.824-.966,2.017,2.017,0,0,1,2.146,1.717v.107a4.256,4.256,0,0,0-2.039-.537c-1.932,0-3.863,1.073-3.863,3a3.144,3.144,0,0,0,3.326,3,3.02,3.02,0,0,0,2.575-1.288h.107v1.073h1.932V25.792a4.061,4.061,0,0,0-4.292-3.756Zm-.215,7.4c-.644,0-1.61-.322-1.61-1.18,0-1.073,1.18-1.395,2.146-1.395a4.15,4.15,0,0,1,1.824.429A2.5,2.5,0,0,1,118.467,29.44Zm11.267-7.082-2.253,5.795h-.107l-2.361-5.795h-2.146l3.541,8.155-2.039,4.507h2.039l5.473-12.662Zm-18.027,8.584h2.039V17.529h-2.039Z" transform="translate(6.003 4.32)"/><path class="e" d="M10.461,7.585A1.883,1.883,0,0,0,10,9V32.717a2.4,2.4,0,0,0,.48,1.61h.163L23.95,21.021v-.215Z" transform="translate(2.731 3.618)"/><path class="f" d="M27.2,24.916l-4.3-4.395V20.2l4.4-4.4h.117l5.248,3.112c1.5.858,1.5,2.253,0,3.112Z" transform="translate(3.673 4.225)"/><path class="g" d="M28.32,24.507,23.813,20,10.4,33.413c.537.537,1.288.537,2.253.107Z" transform="translate(2.76 4.531)"/><path class="h" d="M28.32,16.43,12.653,7.524a1.739,1.739,0,0,0-2.253.107L23.813,20.937Z" transform="translate(2.76 3.594)"/></svg>