<svg xmlns="http://www.w3.org/2000/svg" width="150.536" height="50.96" viewBox="0 0 150.536 50.96"><defs><style>.a{fill:#262626;}.b{fill:#fff;}</style></defs><path class="a" d="M5.115,0H143.421a6.12,6.12,0,0,1,6.115,6.115v38.73a6.12,6.12,0,0,1-6.115,6.115H5.115A6.12,6.12,0,0,1-1,44.845V6.115A6.12,6.12,0,0,1,5.115,0Z" transform="translate(1)"/><g transform="translate(13.349 8.969)"><path class="b" d="M19.579,76.657a6.572,6.572,0,0,1,3.119-5.5,6.76,6.76,0,0,0-5.29-2.864c-2.222-.234-4.383,1.335-5.514,1.335-1.152,0-2.9-1.3-4.78-1.274a7.028,7.028,0,0,0-5.922,3.618C-1.366,76.4.54,82.925,3,86.513c1.233,1.753,2.66,3.72,4.546,3.649,1.835-.071,2.528-1.172,4.739-1.172s2.844,1.172,4.76,1.131c1.977-.031,3.21-1.763,4.4-3.537a14.377,14.377,0,0,0,2.008-4.1,6.357,6.357,0,0,1-3.873-5.83" transform="translate(0.023 -61.308)"/><path class="b" d="M118.713,4.627A6.466,6.466,0,0,0,120.19,0a6.556,6.556,0,0,0-4.25,2.2,6.2,6.2,0,0,0-1.519,4.454,5.432,5.432,0,0,0,4.291-2.028" transform="translate(-102.729)"/></g><g transform="translate(46.873 22.278)"><path class="b" d="M12.01,17.255H9.561L8.22,13.037H3.554L2.281,17.255H-.1L4.517,2.9H7.374ZM7.821,11.268,6.606,7.526c-.126-.389-.369-1.283-.719-2.7H5.838c-.146.612-.369,1.516-.68,2.7l-1.2,3.742Z" transform="translate(0.1 -2.697)"/><path class="b" d="M153.972,47.168a5.83,5.83,0,0,1-1.438,4.17,4.19,4.19,0,0,1-3.188,1.361,3.192,3.192,0,0,1-2.955-1.468v5.433h-2.3V45.516c0-1.108-.029-2.235-.087-3.4h2.022l.126,1.643h.039a4.082,4.082,0,0,1,6.541-.408,5.631,5.631,0,0,1,1.244,3.82Zm-2.342.078a4.225,4.225,0,0,0-.68-2.488,2.356,2.356,0,0,0-2-1.021,2.443,2.443,0,0,0-1.545.564,2.6,2.6,0,0,0-.9,1.477,3.148,3.148,0,0,0-.107.7v1.73a2.783,2.783,0,0,0,.69,1.9,2.3,2.3,0,0,0,1.8.778,2.373,2.373,0,0,0,2.022-1A4.391,4.391,0,0,0,151.63,47.246Z" transform="translate(-129.995 -37.906)"/><path class="b" d="M276.372,47.168a5.83,5.83,0,0,1-1.438,4.17,4.19,4.19,0,0,1-3.188,1.361,3.192,3.192,0,0,1-2.955-1.468v5.433h-2.3V45.516c0-1.108-.029-2.235-.087-3.4h2.022l.126,1.643h.039a4.082,4.082,0,0,1,6.541-.408A5.631,5.631,0,0,1,276.372,47.168Zm-2.342.078a4.225,4.225,0,0,0-.68-2.488,2.356,2.356,0,0,0-2-1.021,2.443,2.443,0,0,0-1.545.564,2.656,2.656,0,0,0-.9,1.477,3.148,3.148,0,0,0-.107.7v1.73a2.783,2.783,0,0,0,.69,1.9,2.3,2.3,0,0,0,1.8.778,2.361,2.361,0,0,0,2.022-1A4.325,4.325,0,0,0,274.03,47.246Z" transform="translate(-240.498 -37.906)"/><path class="b" d="M423.393,11.336a3.844,3.844,0,0,1-1.273,2.984,5.651,5.651,0,0,1-3.907,1.254,6.837,6.837,0,0,1-3.713-.894l.535-1.915a6.456,6.456,0,0,0,3.324.894,3.13,3.13,0,0,0,2.022-.583,1.9,1.9,0,0,0,.729-1.565,2.024,2.024,0,0,0-.593-1.468,5.55,5.55,0,0,0-1.983-1.108c-2.537-.943-3.79-2.313-3.79-4.111a3.646,3.646,0,0,1,1.332-2.9A5.281,5.281,0,0,1,419.6.8a6.935,6.935,0,0,1,3.256.68l-.583,1.866a5.736,5.736,0,0,0-2.76-.661,2.864,2.864,0,0,0-1.9.593,1.725,1.725,0,0,0-.573,1.3,1.745,1.745,0,0,0,.661,1.4,7.416,7.416,0,0,0,2.09,1.108,7.006,7.006,0,0,1,2.721,1.749,3.637,3.637,0,0,1,.884,2.5" transform="translate(-374.204 -0.801)"/><path class="b" d="M525.9,21.906h-2.537v5.025c0,1.273.447,1.915,1.341,1.915a4.266,4.266,0,0,0,1.021-.107l.068,1.749A5.334,5.334,0,0,1,524,30.74a2.752,2.752,0,0,1-2.129-.836,4.057,4.057,0,0,1-.768-2.789V21.9H519.6v-1.72h1.506v-1.9l2.255-.68v2.576H525.9v1.73" transform="translate(-469.089 -15.968)"/><path class="b" d="M607.637,47.3a5.685,5.685,0,0,1-1.361,3.917,4.871,4.871,0,0,1-3.79,1.575,4.665,4.665,0,0,1-3.635-1.506,5.472,5.472,0,0,1-1.351-3.81,5.645,5.645,0,0,1,1.39-3.936A4.851,4.851,0,0,1,602.651,42a4.73,4.73,0,0,1,3.664,1.516,5.4,5.4,0,0,1,1.322,3.781Zm-2.381.049a4.639,4.639,0,0,0-.612-2.44,2.386,2.386,0,0,0-4.179,0,5.263,5.263,0,0,0,0,4.928,2.361,2.361,0,0,0,4.16-.019A4.709,4.709,0,0,0,605.256,47.346Z" transform="translate(-539.418 -37.996)"/><path class="b" d="M727.25,44.135a4.262,4.262,0,0,0-.729-.058,2.17,2.17,0,0,0-1.876.914,3.467,3.467,0,0,0-.574,2.041v5.433h-2.3v-7.1c0-1.2-.02-2.284-.068-3.256h2l.087,1.983h.068A3.529,3.529,0,0,1,725,42.454a2.8,2.8,0,0,1,1.662-.554,4.839,4.839,0,0,1,.573.039l.01,2.2" transform="translate(-651.547 -37.906)"/><path class="b" d="M799.1,46.528a5.26,5.26,0,0,1-.087,1.04h-6.9a3,3,0,0,0,1,2.342,3.446,3.446,0,0,0,2.255.719,7.743,7.743,0,0,0,2.789-.486l.36,1.594a8.637,8.637,0,0,1-3.47.641,5.027,5.027,0,0,1-3.781-1.419,5.239,5.239,0,0,1-1.37-3.8,5.938,5.938,0,0,1,1.283-3.9A4.4,4.4,0,0,1,794.8,41.6a3.841,3.841,0,0,1,3.382,1.662A5.622,5.622,0,0,1,799.1,46.528Zm-2.2-.593a3.1,3.1,0,0,0-.447-1.769,2.006,2.006,0,0,0-1.827-.962,2.185,2.185,0,0,0-1.827.933,3.458,3.458,0,0,0-.68,1.788Z" transform="translate(-713.118 -37.635)"/></g><g transform="translate(47.728 9.924)"><path class="b" d="M5.658,11.556H4.453l-.661-2.07H1.5l-.632,2.07H-.3L1.965,4.5h1.4ZM3.588,8.611,2.995,6.765c-.058-.185-.175-.632-.36-1.332H2.616c-.078.3-.175.739-.34,1.332L1.692,8.611Z" transform="translate(0.3 -4.13)"/><path class="b" d="M73.989,24.7l-1.924,5.093h-1.1L69.1,24.7h1.215l.865,2.692c.146.447.272.875.369,1.283h.029c.087-.369.214-.8.369-1.283L72.8,24.7h1.186" transform="translate(-62.355 -22.367)"/><path class="b" d="M132.259,28.98l-.087-.583h-.029a1.749,1.749,0,0,1-1.487.7,1.476,1.476,0,0,1-1.555-1.5c0-1.254,1.089-1.9,2.974-1.9v-.1c0-.671-.36-1-1.059-1a2.374,2.374,0,0,0-1.332.379l-.233-.739A3.267,3.267,0,0,1,131.2,23.8c1.332,0,2,.7,2,2.109v1.876A6.774,6.774,0,0,0,133.279,29Zm-.156-2.537c-1.254,0-1.886.3-1.886,1.03a.721.721,0,0,0,.778.8,1.081,1.081,0,0,0,1.108-1.04Z" transform="translate(-116.523 -21.554)"/><path class="b" d="M190.971,3.551A.676.676,0,1,1,190.99,2.2a.659.659,0,0,1,.69.671A.661.661,0,0,1,190.971,3.551Zm-.544.836h1.127V9.47h-1.127Z" transform="translate(-171.775 -2.054)"/><path class="b" d="M223.9.7h1.127V8.116H223.9Z" transform="translate(-202.11 -0.7)"/><path class="b" d="M255.559,28.89l-.087-.583h-.029a1.749,1.749,0,0,1-1.487.7,1.476,1.476,0,0,1-1.555-1.5c0-1.254,1.089-1.9,2.974-1.9v-.1c0-.671-.36-1-1.059-1a2.374,2.374,0,0,0-1.332.379l-.233-.748A3.267,3.267,0,0,1,254.5,23.7c1.332,0,2,.7,2,2.109v1.876a8.032,8.032,0,0,0,.068,1.215h-1.011Zm-.156-2.537c-1.254,0-1.886.3-1.886,1.03a.721.721,0,0,0,.778.8,1.081,1.081,0,0,0,1.108-1.04Z" transform="translate(-227.84 -21.464)"/><path class="b" d="M317.153,8.242a1.732,1.732,0,0,1-1.6-.9h-.019l-.068.787H314.5c.029-.408.039-.865.039-1.37V.7h1.137V3.781h.019a1.748,1.748,0,0,1,1.623-.846c1.225,0,2.08,1.05,2.08,2.576C319.4,7.086,318.446,8.242,317.153,8.242ZM316.92,3.82a1.3,1.3,0,0,0-1.244,1.351v.894A1.243,1.243,0,0,0,316.9,7.338c.846,0,1.351-.69,1.351-1.788,0-1.03-.525-1.73-1.332-1.73Z" transform="translate(-283.904 -0.7)"/><path class="b" d="M382.1.7h1.127V8.116H382.1Z" transform="translate(-344.934 -0.7)"/><path class="b" d="M415.381,26.435h-3.392a1.46,1.46,0,0,0,1.6,1.506,3.823,3.823,0,0,0,1.37-.243l.175.787a4.122,4.122,0,0,1-1.7.311,2.362,2.362,0,0,1-2.537-2.566,2.485,2.485,0,0,1,2.41-2.731,2.143,2.143,0,0,1,2.119,2.42A1.97,1.97,0,0,1,415.381,26.435Zm-1.03-.807c0-.787-.4-1.341-1.118-1.341A1.341,1.341,0,0,0,412,25.629Z" transform="translate(-370.935 -21.284)"/><path class="b" d="M504.749,29.007a2.419,2.419,0,0,1-2.449-2.614,2.477,2.477,0,0,1,2.537-2.692,2.4,2.4,0,0,1,2.449,2.6A2.5,2.5,0,0,1,504.749,29.007Zm.049-4.481c-.816,0-1.341.768-1.341,1.827s.535,1.808,1.332,1.808,1.332-.816,1.332-1.837S505.595,24.526,504.8,24.526Z" transform="translate(-453.451 -21.464)"/><path class="b" d="M574.751,28.8h-1.127V25.874c0-.9-.35-1.351-1.03-1.351a1.169,1.169,0,0,0-1.128,1.244V28.79h-1.127V25.165c0-.447-.01-.933-.039-1.458h.991l.049.787h.029a1.83,1.83,0,0,1,1.613-.894c1.069,0,1.769.816,1.769,2.148V28.8" transform="translate(-514.842 -21.374)"/><path class="b" d="M663.581,13.819h-1.244v2.469c0,.632.224.943.661.943a2.473,2.473,0,0,0,.505-.049l.029.855a2.449,2.449,0,0,1-.875.126c-.894,0-1.419-.5-1.419-1.779V13.819H660.5v-.846h.739V12.04l1.108-.34v1.264h1.244v.855" transform="translate(-596.276 -10.631)"/><path class="b" d="M712.813,8.126h-1.127V5.219c0-.914-.35-1.37-1.03-1.37a1.108,1.108,0,0,0-1.127,1.205V8.116H708.4V.7h1.127V3.752h.019a1.71,1.71,0,0,1,1.526-.826c1.079,0,1.74.836,1.74,2.167V8.126" transform="translate(-639.52 -0.7)"/><path class="b" d="M771.581,26.435h-3.392a1.46,1.46,0,0,0,1.6,1.506,3.824,3.824,0,0,0,1.37-.243l.175.787a4.122,4.122,0,0,1-1.7.311,2.362,2.362,0,0,1-2.537-2.566,2.485,2.485,0,0,1,2.41-2.731,2.143,2.143,0,0,1,2.119,2.42A1.97,1.97,0,0,1,771.581,26.435Zm-1.03-.807c0-.787-.4-1.341-1.118-1.341a1.334,1.334,0,0,0-1.234,1.341Z" transform="translate(-692.515 -21.284)"/></g></svg>